<?xml version="1.0" encoding="UTF-8" standalone="no"?>
<svg
   width="547.85071"
   height="404.69333"
   viewBox="0 0 513.61002 379.39999"
   id="svg2"
   sodipodi:version="0.32"
   inkscape:version="1.3.2 (091e20e, 2023-11-25)"
   sodipodi:docname="Spannung_Zeiger.svg"
   inkscape:output_extension="org.inkscape.output.svg.inkscape"
   version="1.0"
   inkscape:export-filename="Spannung_Zeiger.png"
   inkscape:export-xdpi="96"
   inkscape:export-ydpi="96"
   xmlns:inkscape="http://www.inkscape.org/namespaces/inkscape"
   xmlns:sodipodi="http://sodipodi.sourceforge.net/DTD/sodipodi-0.dtd"
   xmlns="http://www.w3.org/2000/svg"
   xmlns:svg="http://www.w3.org/2000/svg"
   xmlns:rdf="http://www.w3.org/1999/02/22-rdf-syntax-ns#"
   xmlns:cc="http://creativecommons.org/ns#"
   xmlns:dc="http://purl.org/dc/elements/1.1/">
  <metadata
     id="metadata137">
    <rdf:RDF>
      <cc:Work
         rdf:about="">
        <dc:format>image/svg+xml</dc:format>
        <dc:type
           rdf:resource="http://purl.org/dc/dcmitype/StillImage" />
        <dc:title>Produce by DWG to SVG Converter MX</dc:title>
      </cc:Work>
    </rdf:RDF>
  </metadata>
  <defs
     id="defs135">
    <inkscape:perspective
       sodipodi:type="inkscape:persp3d"
       inkscape:vp_x="0 : 222.95556 : 1"
       inkscape:vp_y="0 : 1094.017 : 0"
       inkscape:vp_z="639.99998 : 222.95556 : 1"
       inkscape:persp3d-origin="319.99999 : 151.84443 : 1"
       id="perspective139" />
  </defs>
  <sodipodi:namedview
     inkscape:window-height="890"
     inkscape:window-width="1408"
     inkscape:pageshadow="2"
     inkscape:pageopacity="0.0"
     guidetolerance="10.0"
     gridtolerance="10.0"
     objecttolerance="10.0"
     borderopacity="1.0"
     bordercolor="#666666"
     pagecolor="#ffffff"
     id="base"
     showgrid="false"
     inkscape:zoom="1.0074074"
     inkscape:cx="294.31986"
     inkscape:cy="185.12868"
     inkscape:window-x="65"
     inkscape:window-y="38"
     inkscape:current-layer="svg2"
     inkscape:showpageshadow="2"
     inkscape:pagecheckerboard="0"
     inkscape:deskcolor="#d1d1d1"
     inkscape:window-maximized="1" />
  <title
     id="title4">Produce by DWG to SVG Converter MX</title>
  <desc
     id="desc6">Produce by DWG to SVG Converter MX</desc>
  <path
     d="m 199.97,257.16 -11.8,-18.33"
     id="path32"
     style="fill:none;stroke:#000000;stroke-width:1;stroke-miterlimit:4;stroke-dasharray:none" />
  <path
     d="m 188.17,238.83 19.42,11.52"
     id="path34"
     style="fill:none;stroke:#000000;stroke-width:1;stroke-miterlimit:4;stroke-dasharray:none" />
  <path
     d="M 118.09,326.68 H 507.7"
     id="path36"
     style="fill:none;stroke:#000000;stroke-width:1;stroke-miterlimit:4;stroke-dasharray:none" />
  <path
     d="M 126.94,335.53 V 7.91"
     id="path38"
     style="fill:none;stroke:#000000;stroke-width:1;stroke-miterlimit:4;stroke-dasharray:none" />
  <path
     d="m 46.08,25.26 v 0.72 H 34.96 v -0.72 h 0.92 0.81 l 1.17,-0.47 0.36,-0.47 0.23,-0.3 0.23,-1.47 V 21.38 4.6 3.62 L 38.56,2.31 38.44,2 38.34,1.76 37.95,1.35 37.65,1.18 37.23,0.95 36.34,0.72 H 35.88 34.96 V 0 h 11.12 v 0.72 h -0.94 -0.79 l -1.16,0.47 -0.36,0.46 -0.24,0.31 -0.24,1.47 v 1.17 16.78 0.98 l 0.13,1.3 0.12,0.32 0.1,0.24 0.4,0.41 0.3,0.17 0.41,0.23 0.87,0.23 h 0.46 z"
     id="path44"
     style="fill:#000000;fill-rule:evenodd;stroke-width:1;stroke-miterlimit:4;stroke-dasharray:none" />
  <path
     d="m 53.52,11.65 0.96,-0.96 1.13,-1.11 0.18,-0.14 0.43,-0.37 0.93,-0.57 0.5,-0.2 0.5,-0.2 0.99,-0.2 h 0.49 0.82 l 1.42,0.48 0.6,0.48 0.59,0.48 0.8,1.39 0.2,0.92 0.99,-1.16 1.66,-1.51 0.68,-0.36 0.68,-0.36 1.4,-0.36 h 0.71 0.7 l 1.24,0.36 0.54,0.36 0.54,0.36 0.86,1.17 0.31,0.82 0.21,0.55 0.21,1.75 v 1.19 7.56 0.82 l 0.13,1.13 0.12,0.3 0.1,0.21 0.35,0.36 0.26,0.15 0.26,0.15 0.84,0.15 h 0.58 v 0.69 h -8.67 v -0.69 h 0.36 0.57 l 0.89,-0.22 0.31,-0.22 0.22,-0.16 0.32,-0.48 0.1,-0.34 0.04,-0.16 0.03,-0.93 v -0.76 -7.55 -1.08 l -0.25,-1.51 -0.26,-0.44 -0.37,-0.62 -1.2,-0.61 H 68.7 68.2 l -1.02,0.25 -0.51,0.26 -0.51,0.25 -1.24,0.95 -0.72,0.69 -0.04,0.21 0.02,0.82 v 8.38 0.9 l 0.11,1.11 0.1,0.22 0.1,0.22 0.37,0.37 0.28,0.15 0.28,0.15 0.94,0.15 h 0.67 v 0.69 h -8.88 v -0.69 h 0.72 l 1,-0.17 0.27,-0.18 0.28,-0.17 0.37,-0.52 0.11,-0.34 0.05,-0.16 0.04,-0.95 V 22.02 14.47 13.39 L 60.68,11.84 60.36,11.37 59.94,10.75 58.77,10.13 H 58.01 57.5 l -1.03,0.28 -0.5,0.28 -0.79,0.43 -1.23,0.95 -0.43,0.54 v 9.41 0.86 l 0.12,1.12 0.12,0.25 0.12,0.26 0.35,0.39 0.24,0.13 0.23,0.13 0.95,0.13 h 0.72 v 0.69 h -8.7 v -0.69 h 0.6 l 0.85,-0.13 0.24,-0.13 0.23,-0.13 0.37,-0.41 0.12,-0.28 0.13,-0.29 0.12,-1.09 V 22.02 15.29 13.85 L 50.24,11.98 50.16,11.56 50.09,11.25 49.88,10.81 49.74,10.69 49.59,10.57 49.2,10.45 h -0.25 -0.27 l -0.64,0.15 -0.37,0.14 -0.29,-0.69 5.31,-2.15 h 0.83 z"
     id="path46"
     style="fill:#000000;fill-rule:evenodd;stroke-width:1;stroke-miterlimit:4;stroke-dasharray:none" />
  <path
     d="m 109.32,9.09 -3.49,11.59 -0.39,1.29 -0.39,1.63 v 0.34 0.16 l 0.05,0.24 0.05,0.07 0.04,0.08 0.13,0.07 h 0.08 0.13 l 0.28,-0.14 0.15,-0.13 0.15,-0.14 0.76,-1.17 0.61,-1.03 0.58,0.44 -0.67,1.16 -1.36,1.69 -0.7,0.52 -0.46,0.34 -0.89,0.33 h -0.43 -0.33 l -0.52,-0.21 -0.2,-0.21 -0.19,-0.21 -0.19,-0.54 V 24.92 24.6 l 0.12,-0.86 0.13,-0.54 0.16,-0.66 0.91,-3.04 0.74,-2.38 -1.69,2.67 -2.83,3.66 -1.14,0.99 -1.14,1 -2.09,0.99 h -0.97 -0.45 l -0.76,-0.3 -0.32,-0.31 -0.31,-0.31 -0.31,-0.77 v -0.47 -0.71 l 0.5,-2.21 0.5,-1.48 2,-5.92 0.36,-1.06 0.37,-1.33 V 11.3 11.19 l -0.1,-0.2 -0.1,-0.08 -0.09,-0.08 -0.21,-0.08 h -0.12 -0.24 l -0.48,0.14 -0.24,0.15 -0.24,0.14 -1.09,1.06 -0.84,0.92 -0.6,-0.42 0.78,-1.11 1.66,-1.64 0.87,-0.52 0.67,-0.42 1.23,-0.41 h 0.56 0.39 l 0.63,0.27 0.24,0.27 0.25,0.27 0.24,0.69 v 0.42 0.51 l -0.45,1.83 -0.44,1.31 -2.1,6.12 -0.43,1.25 -0.44,1.58 v 0.33 0.19 l 0.13,0.29 0.12,0.11 0.12,0.11 0.34,0.11 h 0.21 0.32 l 0.86,-0.32 0.53,-0.31 0.52,-0.32 1.41,-1.41 0.88,-1.09 0.88,-1.09 1.45,-2.05 0.57,-0.95 0.57,-0.96 1.21,-3.04 0.64,-2.09 0.45,-1.58 z"
     id="path48"
     style="fill:#000000;fill-rule:evenodd;stroke-width:1;stroke-miterlimit:4;stroke-dasharray:none" />
  <path
     d="m 90.4,34.47 h 19.63"
     id="path50"
     style="fill:none;stroke:#000000;stroke-width:1;stroke-miterlimit:4;stroke-dasharray:none" />
  <path
     d="m 467.14,362.46 h -6.95 l -8.81,-12.15 -0.49,0.02 -0.79,0.02 h -0.3 -0.12 l -0.27,-0.01 h -0.14 l -0.14,-0.01 -0.3,-0.01 -0.15,-0.01 v 7.55 1.22 l 0.27,1.52 0.26,0.3 0.37,0.42 1.08,0.42 h 0.73 1.01 v 0.72 h -11.11 v -0.72 h 0.97 0.82 l 1.17,-0.53 0.36,-0.54 0.2,-0.3 0.2,-1.4 v -1.11 -16.78 -1.22 l -0.27,-1.52 -0.27,-0.3 -0.37,-0.42 -1.11,-0.42 h -0.73 -0.97 v -0.72 h 9.44 2.07 l 3.05,0.3 0.98,0.3 0.98,0.3 1.66,1.12 0.68,0.81 0.69,0.8 0.68,1.93 v 1.13 1.19 l -0.78,2.08 -0.77,0.88 -0.78,0.88 -2.41,1.25 -1.64,0.36 5.39,7.44 0.92,1.29 1.58,1.7 0.66,0.43 0.66,0.42 1.73,0.54 1.06,0.11 z m -18.46,-13.35 h 0.18 l 0.31,0.01 h 0.13 0.14 l 0.21,0.01 h 0.09 1.83 l 2.77,-0.81 0.93,-0.8 0.93,-0.8 0.93,-2.05 v -1.25 -1.22 l -0.75,-1.97 -0.75,-0.76 -0.75,-0.77 -1.99,-0.76 h -1.24 -0.55 l -1.49,0.18 -0.93,0.17 z"
     id="path52"
     style="fill:#000000;fill-rule:evenodd;stroke-width:1;stroke-miterlimit:4;stroke-dasharray:none" />
  <path
     d="m 470.94,351.53 -0.01,1.95 0.95,3.07 0.96,1.11 0.96,1.11 2.26,1.11 h 1.29 0.87 l 1.5,-0.47 0.64,-0.47 0.64,-0.47 1.07,-1.63 0.43,-1.16 0.59,0.38 -0.2,1.32 -1.17,2.39 -0.97,1.07 -0.97,1.08 -2.43,1.07 h -1.46 -1.58 l -2.71,-1.23 -1.12,-1.23 -1.13,-1.23 -1.13,-3.31 v -2.08 -2.25 l 1.16,-3.51 1.15,-1.25 1.16,-1.26 2.9,-1.26 h 1.75 1.47 l 2.43,0.97 0.95,0.97 0.95,0.98 0.95,2.6 v 1.63 z m 0,-1.12 h 8.16 l -0.05,-0.84 -0.2,-1.19 -0.16,-0.34 -0.24,-0.54 -0.71,-0.85 -0.48,-0.3 -0.48,-0.31 -0.99,-0.31 h -0.52 -0.8 l -1.43,0.62 -0.63,0.62 -0.63,0.62 -0.74,1.72 z"
     id="path54"
     style="fill:#000000;fill-rule:evenodd;stroke-width:1;stroke-miterlimit:4;stroke-dasharray:none" />
  <path
     d="m 512.91,345.57 -3.49,11.59 -0.39,1.29 -0.39,1.63 v 0.34 0.16 l 0.04,0.24 0.05,0.07 0.05,0.08 0.13,0.07 h 0.08 0.13 l 0.27,-0.14 0.15,-0.13 0.15,-0.14 0.77,-1.17 0.61,-1.03 0.57,0.44 -0.66,1.16 -1.37,1.69 -0.69,0.52 -0.47,0.34 -0.89,0.33 h -0.43 -0.33 l -0.52,-0.21 -0.19,-0.21 -0.19,-0.21 -0.2,-0.54 v -0.34 -0.32 l 0.13,-0.86 0.12,-0.54 0.17,-0.66 0.9,-3.04 0.74,-2.38 -1.69,2.67 -2.82,3.66 -1.14,0.99 -1.14,1 -2.1,0.99 h -0.96 -0.45 l -0.77,-0.3 -0.31,-0.31 -0.31,-0.31 -0.32,-0.77 v -0.47 -0.71 l 0.51,-2.21 0.5,-1.48 1.99,-5.92 0.37,-1.06 0.36,-1.33 v -0.26 -0.11 l -0.09,-0.2 -0.1,-0.08 -0.1,-0.08 -0.21,-0.08 h -0.11 -0.24 l -0.48,0.14 -0.24,0.15 -0.24,0.14 -1.09,1.06 -0.85,0.92 -0.59,-0.42 0.78,-1.11 1.66,-1.64 0.87,-0.52 0.67,-0.42 1.23,-0.41 h 0.56 0.38 l 0.63,0.27 0.25,0.27 0.24,0.27 0.25,0.69 v 0.42 0.51 l -0.45,1.83 -0.45,1.31 -2.09,6.12 -0.44,1.25 -0.43,1.58 v 0.33 0.19 l 0.12,0.29 0.13,0.11 0.12,0.11 0.33,0.11 h 0.21 0.33 l 0.85,-0.32 0.53,-0.31 0.53,-0.32 1.4,-1.41 0.88,-1.09 0.88,-1.09 1.45,-2.05 0.58,-0.95 0.57,-0.96 1.21,-3.04 0.64,-2.09 0.45,-1.58 z"
     id="path56"
     style="fill:#000000;fill-rule:evenodd;stroke-width:1;stroke-miterlimit:4;stroke-dasharray:none" />
  <path
     d="m 493.99,370.95 h 19.62"
     id="path58"
     style="fill:none;stroke:#000000;stroke-width:1;stroke-miterlimit:4;stroke-dasharray:none" />
  <path
     d="m 507.7,326.68 -26.57,-8.86"
     id="path60"
     style="fill:none;stroke:#000000;stroke-width:1;stroke-miterlimit:4;stroke-dasharray:none" />
  <path
     d="m 507.7,326.68 -26.57,8.85"
     id="path62"
     style="fill:none;stroke:#000000;stroke-width:1;stroke-miterlimit:4;stroke-dasharray:none" />
  <path
     d="m 126.94,7.91 -8.85,26.56"
     id="path64"
     style="fill:none;stroke:#000000;stroke-width:1;stroke-miterlimit:4;stroke-dasharray:none" />
  <path
     d="M 135.8,34.47 126.94,7.91"
     id="path66"
     style="fill:none;stroke:#000000;stroke-width:1;stroke-miterlimit:4;stroke-dasharray:none" />
  <path
     d="m 200.73,304.01 6.61,-12.11 0.8,-1.47 1.98,-2.09 1.18,-0.62 1.18,-0.62 2.69,-0.62 h 1.51 2.19 l 3.2,1.26 1.02,1.25 1.02,1.26 -0.01,3.14 -1.03,1.88 -0.68,1.25 -2.26,2.45 -1.58,1.19 -1.58,1.19 -3.37,1.76 -1.79,0.57 -1.79,0.57 -4.26,0.7 -2.46,0.12 -4.33,7.92 h -3.14 l 4.32,-7.92 -2.13,-0.12 -3.29,-0.7 -1.16,-0.58 -1.16,-0.57 -1.44,-1.75 -0.28,-1.18 -0.28,-1.18 0.4,-2.43 0.68,-1.25 0.58,-1.07 1.69,-1.97 1.11,-0.91 1.1,-0.91 2.25,-1.44 1.13,-0.52 1.14,-0.53 2.15,-0.75 1.02,-0.23 1.02,-0.22 2.34,-0.25 1.33,-0.03 -0.39,0.71 -1.33,0.07 -2.81,0.98 -1.49,0.91 -1.49,0.91 -2.57,2.91 -1.09,1.99 -0.79,1.45 -0.67,2.47 0.11,1.02 0.12,1.02 0.86,1.53 0.74,0.5 0.48,0.33 1.59,0.53 z m 3.17,-0.05 1.52,-0.11 2.59,-0.45 1.08,-0.34 1.49,-0.47 2.63,-1.36 1.13,-0.88 1.13,-0.89 1.8,-2.11 0.67,-1.22 0.95,-1.74 0.26,-2.87 -0.69,-1.14 -0.5,-0.82 -1.73,-0.83 h -1.22 -0.62 l -1.21,0.36 -0.58,0.36 -0.58,0.36 -1.23,1.53 -0.63,1.17 z"
     id="path68"
     style="fill:#000000;fill-rule:evenodd;stroke-width:1;stroke-miterlimit:4;stroke-dasharray:none" />
  <path
     d="m 119.5,358.11 v -2.22 l 0.67,-3.82 0.67,-1.61 0.67,-1.6 1.78,-2.39 1.11,-0.79 0.87,-0.62 1.78,-0.62 h 0.92 1.49 l 2.68,1.52 1.19,1.52 1.49,1.89 1.48,5.11 v 3.23 2.26 l -0.65,3.84 -0.65,1.58 -0.65,1.58 -1.66,2.29 -1.01,0.72 -1.02,0.71 -1.95,0.71 h -0.93 -1.86 l -3.1,-2.19 -1.23,-2.19 -1.05,-1.85 -1.04,-4.45 z m 3.75,0.49 v 2.68 l 0.66,4.38 0.66,1.69 0.55,1.43 1.63,1.43 h 1.08 0.52 l 1.08,-0.47 0.55,-0.46 0.56,-0.47 0.84,-1.55 0.29,-1.09 0.44,-1.65 0.44,-4.64 v -3 -2.22 l -0.46,-3.71 -0.46,-1.48 -0.34,-1.1 -0.9,-1.56 -0.54,-0.46 -0.4,-0.32 -0.95,-0.31 h -0.55 -0.65 l -1.17,0.58 -0.5,0.58 -0.69,0.8 -0.94,2.5 -0.25,1.7 -0.25,1.71 -0.25,3.36 z"
     id="path70"
     style="fill:#000000;fill-rule:evenodd;stroke-width:1;stroke-miterlimit:4;stroke-dasharray:none" />
  <path
     d="m 92.93,327.12 v -2.22 l 0.67,-3.83 0.67,-1.6 0.68,-1.6 1.78,-2.39 1.11,-0.79 0.86,-0.62 1.78,-0.62 h 0.92 1.5 l 2.68,1.52 1.19,1.52 1.48,1.89 1.49,5.11 v 3.23 2.26 l -0.65,3.84 -0.65,1.58 -0.66,1.58 -1.66,2.29 -1.01,0.71 -1.01,0.72 -1.95,0.71 h -0.94 -1.86 l -3.09,-2.19 -1.24,-2.19 -1.04,-1.85 -1.05,-4.45 z m 3.75,0.49 v 2.68 l 0.66,4.38 0.67,1.69 0.54,1.43 1.63,1.42 h 1.09 0.52 l 1.07,-0.46 0.56,-0.46 0.55,-0.47 0.85,-1.55 0.29,-1.1 0.44,-1.64 0.44,-4.65 v -2.99 -2.22 l -0.46,-3.71 -0.46,-1.48 -0.35,-1.1 -0.89,-1.56 -0.55,-0.46 -0.39,-0.32 -0.95,-0.32 h -0.56 -0.65 l -1.16,0.59 -0.51,0.58 -0.69,0.8 -0.94,2.5 -0.25,1.7 -0.25,1.7 -0.25,3.36 z"
     id="path72"
     style="fill:#000000;fill-rule:evenodd;stroke-width:1;stroke-miterlimit:4;stroke-dasharray:none" />
  <path
     d="m 410.12,336.51 0.1,-3.36 m 0,0 0.06,-3.36 m 0,0 0.01,-3.36 m 0,0 -0.02,-3.36 m 0,0 -0.06,-3.35 m 0,0 -0.1,-3.36 m 0,0 -0.15,-3.36 m 0,0 -0.18,-3.36 m 0,0 -0.22,-3.35 m 0,0 -0.26,-3.35 m 0,0 -0.3,-3.34 m 0,0 -0.34,-3.35 m 0,0 -0.38,-3.34 m 0,0 -0.42,-3.33 m 0,0 -0.46,-3.33 m 0,0 -0.5,-3.32 m 0,0 -0.31,-1.87 m -5.89,-27.48 -0.06,-0.22 m 0,0 -0.88,-3.24 m 0,0 -0.93,-3.23 m 0,0 -0.97,-3.22 m 0,0 -1,-3.21 m 0,0 -1.04,-3.19 m 0,0 -1.08,-3.19 m 0,0 -1.12,-3.17 m 0,0 -1.15,-3.15 m 0,0 -1.19,-3.14 m 0,0 -1.23,-3.13 m 0,0 -1.27,-3.11 m 0,0 -1.3,-3.1 m 0,0 -1.34,-3.08 m 0,0 -1.38,-3.07 m 0,0 -1.41,-3.05 m 0,0 -1.45,-3.03 m 0,0 -0.98,-2 m -13.69,-24.55 -1.74,-2.74 m 0,0 -1.83,-2.82 m 0,0 -1.87,-2.8 m 0,0 -1.89,-2.77 m 0,0 -1.93,-2.75 m 0,0 -1.96,-2.73 m 0,0 -2,-2.7 m 0,0 -2.02,-2.69 m 0,0 -2.06,-2.65 m 0,0 -2.09,-2.63 m 0,0 -2.12,-2.61 m 0,0 -2.15,-2.58 m 0,0 -2.18,-2.56 m 0,0 -2.21,-2.53 m 0,0 -2.24,-2.5 m 0,0 -2.27,-2.48 m 0,0 -1.77,-1.88 m -20.28,-19.44 -2.21,-1.9 m 0,0 -2.58,-2.16 m 0,0 -2.6,-2.13 m 0,0 -2.62,-2.1 m 0,0 -2.65,-2.07 m 0,0 -2.67,-2.03 m 0,0 -2.7,-2.01 m 0,0 -2.72,-1.97 m 0,0 -2.74,-1.94 m 0,0 -2.77,-1.91 m 0,0 -2.79,-1.87 m 0,0 -2.81,-1.84 m 0,0 -2.83,-1.81 m 0,0 -2.86,-1.77 m 0,0 -2.87,-1.74 m 0,0 -2.9,-1.71 m 0,0 -2.52,-1.44 m -25.1,-12.64 -2.36,-1.04 m 0,0 -3.09,-1.31 m 0,0 -3.11,-1.28 m 0,0 -3.12,-1.24 m 0,0 -3.14,-1.2 m 0,0 -3.15,-1.17 m 0,0 -3.17,-1.13 m 0,0 -3.17,-1.09 m 0,0 -3.2,-1.05 m 0,0 -3.2,-1.02 m 0,0 -3.21,-0.98 m 0,0 -3.23,-0.93 m 0,0 -3.24,-0.91 m 0,0 -3.24,-0.86 m 0,0 -3.26,-0.82 m 0,0 -3.27,-0.79 m 0,0 -3.17,-0.72 m -27.7,-4.72 -2.22,-0.26 m 0,0 -3.34,-0.35 m 0,0 -3.35,-0.32 m 0,0 -3.35,-0.27 m 0,0 -3.35,-0.24 m 0,0 -3.35,-0.19 m 0,0 -3.36,-0.16 m 0,0 -3.36,-0.11 m 0,0 -3.36,-0.08 m 0,0 -3.36,-0.03 m 0,0 h -3.36 m 0,0 -3.36,0.05 m 0,0 -3.36,0.08 m 0,0 -3.36,0.13 m 0,0 -3.35,0.16 m 0,0 -3.36,0.2 m 0,0 -3.35,0.25 m 0,0 -0.23,0.02 m -27.86,3.61 -1.87,0.34 m 0,0 -3.3,0.63 m 0,0 -3.29,0.68 m 0,0 -3.28,0.72 m 0,0 -3.28,0.75 m 0,0 -3.26,0.8 m 0,0 -3.26,0.83 m 0,0 -3.24,0.87 m 0,0 -3.24,0.91 m 0,0 -3.22,0.95 m 0,0 -3.21,0.98 m 0,0 -3.21,1.03 m 0,0 -3.18,1.06 m 0,0 -3.18,1.1 m 0,0 -3.16,1.14 m 0,0 -3.15,1.17 m 0,0 L 23.2,63"
     id="path74"
     style="fill:none;stroke:#000000;stroke-width:1;stroke-miterlimit:4;stroke-dasharray:none" />
  <path
     d="M 126.94,326.68 290.76,96.45"
     id="path76"
     style="fill:none;stroke:#000000;stroke-width:2;stroke-miterlimit:4;stroke-dasharray:none" />
  <path
     d="m 290.76,96.45 -22.62,16.52"
     id="path78"
     style="fill:none;stroke:#000000;stroke-width:2;stroke-miterlimit:4;stroke-dasharray:none" />
  <path
     d="m 282.57,123.23 8.19,-26.78"
     id="path80"
     style="fill:none;stroke:#000000;stroke-width:2;stroke-miterlimit:4;stroke-dasharray:none" />
  <path
     d="m 289.42,52.1 20.98,8.34"
     id="path82"
     style="fill:none;stroke:#000000;stroke-width:1;stroke-miterlimit:4;stroke-dasharray:none" />
  <path
     d="M 305.57,67.87 289.42,52.1"
     id="path84"
     style="fill:none;stroke:#000000;stroke-width:1;stroke-miterlimit:4;stroke-dasharray:none" />
  <path
     d="m 352.66,101.59 -2.48,-2.47 m 0,0 -2.52,-2.44 m 0,0 -2.53,-2.4 m 0,0 -2.57,-2.39 m 0,0 -2.59,-2.35 m 0,0 -2.61,-2.32 m 0,0 -2.65,-2.3 m 0,0 -2.66,-2.27 m 0,0 -2.69,-2.23 m 0,0 -2.72,-2.21 m 0,0 -2.74,-2.18 m 0,0 -2.76,-2.14 m 0,0 -2.79,-2.12 m 0,0 -2.81,-2.09 m 0,0 -2.83,-2.05 m 0,0 -2.86,-2.03 m 0,0 -2.88,-1.99 m 0,0 -2.89,-1.96 m 0,0 -2.92,-1.93 m 0,0 -2.95,-1.89 m 0,0 -2.96,-1.87 m 0,0 -2.98,-1.83 m 0,0 -3,-1.8"
     id="path86"
     style="fill:none;stroke:#000000;stroke-width:1;stroke-miterlimit:4;stroke-dasharray:none" />
  <path
     d="M 290.76,96.45 H 118.09"
     id="path88"
     style="fill:none;stroke:#000000;stroke-width:1;stroke-miterlimit:4;stroke-dasharray:none" />
  <path
     d="M 290.76,96.45 V 335.53"
     id="path90"
     style="fill:none;stroke:#000000;stroke-width:1;stroke-miterlimit:4;stroke-dasharray:none" />
  <path
     d="m 206.7,159.62 -3.49,11.59 -0.39,1.29 -0.39,1.63 v 0.34 0.16 l 0.05,0.24 0.05,0.07 0.04,0.08 0.13,0.07 h 0.08 0.13 l 0.28,-0.14 0.15,-0.13 0.15,-0.14 0.76,-1.17 0.61,-1.03 0.58,0.44 -0.67,1.17 -1.36,1.68 -0.7,0.52 -0.46,0.34 -0.9,0.33 h -0.42 -0.33 l -0.52,-0.21 -0.2,-0.21 -0.19,-0.21 -0.19,-0.54 v -0.34 -0.32 l 0.12,-0.86 0.13,-0.54 0.16,-0.66 0.9,-3.04 0.75,-2.37 -1.69,2.66 -2.83,3.66 -1.14,1 -1.14,0.99 -2.1,0.99 h -0.96 -0.45 l -0.76,-0.3 -0.32,-0.31 -0.31,-0.3 -0.31,-0.78 v -0.47 -0.71 l 0.5,-2.21 0.5,-1.48 2,-5.92 0.36,-1.06 0.37,-1.33 v -0.25 -0.12 l -0.1,-0.2 -0.1,-0.08 -0.09,-0.08 -0.21,-0.08 h -0.12 -0.24 l -0.48,0.14 -0.24,0.15 -0.24,0.14 -1.09,1.06 -0.84,0.92 -0.6,-0.42 0.78,-1.11 1.66,-1.64 0.87,-0.52 0.67,-0.42 1.23,-0.41 h 0.56 0.39 l 0.63,0.27 0.24,0.27 0.25,0.27 0.24,0.69 v 0.42 0.51 l -0.45,1.83 -0.44,1.32 -2.1,6.11 -0.43,1.25 -0.44,1.58 v 0.34 0.18 l 0.13,0.29 0.12,0.11 0.12,0.11 0.34,0.11 h 0.21 0.32 l 0.86,-0.32 0.53,-0.31 0.52,-0.32 1.41,-1.41 0.88,-1.09 0.88,-1.09 1.45,-2.05 0.57,-0.95 0.57,-0.96 1.21,-3.04 0.64,-2.09 0.45,-1.58 z"
     id="path92"
     style="fill:#000000;fill-rule:evenodd;stroke-width:1;stroke-miterlimit:4;stroke-dasharray:none" />
  <path
     d="m 187.78,185 h 19.63"
     id="path94"
     style="fill:none;stroke:#000000;stroke-width:1;stroke-miterlimit:4;stroke-dasharray:none" />
  <path
     d="M 341.22,47.79 339.65,53 h 2.65 l -0.32,1.23 h -2.69 l -3.5,11.27 -0.31,0.96 -0.32,1.25 V 68 68.15 l 0.07,0.24 0.06,0.08 0.07,0.08 0.16,0.08 h 0.1 0.21 l 0.57,-0.32 0.35,-0.31 0.2,-0.2 0.92,-1.17 0.71,-0.99 0.63,0.48 -0.83,1.26 -1.58,1.77 -0.74,0.5 -0.51,0.35 -1.02,0.34 h -0.52 -0.4 l -0.65,-0.26 -0.25,-0.26 -0.26,-0.27 -0.25,-0.67 v -0.41 -0.52 l 0.32,-1.57 0.32,-1.07 3.36,-11.08 h -2.92 l 0.19,-0.76 1.06,-0.29 1.79,-0.86 0.73,-0.57 0.73,-0.57 1.67,-1.98 0.92,-1.41 z"
     id="path96"
     style="fill:#000000;fill-rule:evenodd;stroke-width:1;stroke-miterlimit:4;stroke-dasharray:none" />
  <path
     d="m 259.83,353.53 -3.49,11.59 -0.39,1.29 -0.39,1.63 v 0.34 0.16 l 0.05,0.24 0.04,0.07 0.05,0.08 0.13,0.07 h 0.08 0.13 l 0.27,-0.14 0.15,-0.13 0.16,-0.14 0.76,-1.17 0.61,-1.03 0.57,0.44 -0.66,1.17 -1.36,1.68 -0.7,0.52 -0.47,0.34 -0.89,0.33 h -0.43 -0.32 l -0.53,-0.21 -0.19,-0.21 -0.19,-0.21 -0.19,-0.54 v -0.34 -0.32 l 0.12,-0.86 0.13,-0.54 0.16,-0.66 0.9,-3.04 0.75,-2.38 -1.69,2.67 -2.83,3.66 -1.14,0.99 -1.14,1 -2.1,0.99 h -0.96 -0.45 l -0.76,-0.3 -0.32,-0.31 -0.31,-0.31 -0.32,-0.77 V 368.71 368 l 0.51,-2.21 0.5,-1.48 1.99,-5.92 0.37,-1.06 0.37,-1.33 v -0.26 -0.11 l -0.1,-0.2 -0.1,-0.08 -0.09,-0.08 -0.22,-0.08 h -0.11 -0.24 l -0.48,0.14 -0.24,0.15 -0.24,0.14 -1.09,1.06 -0.84,0.92 -0.6,-0.42 0.78,-1.11 1.66,-1.64 0.87,-0.52 0.67,-0.42 1.23,-0.41 h 0.56 0.38 l 0.63,0.27 0.25,0.27 0.24,0.27 0.25,0.69 v 0.42 0.51 l -0.45,1.83 -0.44,1.31 -2.1,6.12 -0.43,1.25 -0.44,1.58 v 0.34 0.18 l 0.12,0.29 0.13,0.11 0.12,0.11 0.34,0.11 h 0.2 0.33 l 0.86,-0.32 0.52,-0.31 0.53,-0.32 1.41,-1.41 0.88,-1.09 0.88,-1.09 1.45,-2.05 0.57,-0.95 0.57,-0.96 1.21,-3.04 0.64,-2.09 0.45,-1.58 z"
     id="path98"
     style="fill:#000000;fill-rule:evenodd;stroke-width:1;stroke-miterlimit:4;stroke-dasharray:none" />
  <path
     d="m 256.73,344.33 1.44,6.07 h -0.4 l -3.24,-3.89 -6.12,3.89 h -0.51 l 5.96,-6.07 z"
     id="path100"
     style="fill:#000000;fill-rule:evenodd;stroke-width:1;stroke-miterlimit:4;stroke-dasharray:none" />
  <path
     d="m 286.49,363.75 -0.36,1.74 -1.38,2.67 -1.04,0.93 -1.03,0.93 -2.29,0.93 h -1.26 -1.49 l -2.6,-1.25 -1.12,-1.26 -1.11,-1.26 -1.11,-3.39 v -2.14 -2.07 l 1.23,-3.36 1.23,-1.29 1.23,-1.3 2.96,-1.29 h 1.72 1.29 l 2.12,0.68 0.84,0.69 0.83,0.68 0.83,1.43 v 0.74 0.36 l -0.23,0.59 -0.24,0.23 -0.23,0.22 -0.66,0.23 h -0.42 -0.56 l -0.84,-0.37 -0.28,-0.36 -0.17,-0.2 -0.23,-0.77 -0.05,-0.57 -0.05,-0.57 -0.39,-0.86 -0.33,-0.3 -0.34,-0.29 -0.92,-0.29 h -0.6 -0.95 l -1.54,0.71 -0.59,0.71 -0.77,0.94 -0.78,2.49 v 1.55 1.57 l 0.77,2.78 0.77,1.2 0.77,1.21 2.08,1.2 h 1.32 0.93 l 1.69,-0.63 0.74,-0.64 0.53,-0.44 1.02,-1.61 0.5,-1.17 z"
     id="path102"
     style="fill:#000000;fill-rule:evenodd;stroke-width:1;stroke-miterlimit:4;stroke-dasharray:none" />
  <path
     d="m 297.61,352.34 h 1.99 l 3.2,1.51 1.21,1.52 1.02,1.29 1.03,2.97 v 1.68 1.18 l -0.57,2.38 -0.56,1.21 -0.57,1.21 -1.55,1.82 -1,0.61 -0.99,0.62 -2.21,0.61 h -1.21 -1.99 l -3.15,-1.58 -1.17,-1.58 -0.98,-1.33 -0.99,-2.99 v -1.66 -1.21 l 0.6,-2.4 0.6,-1.19 0.6,-1.2 1.57,-1.76 0.98,-0.57 0.98,-0.57 2.07,-0.57 z m -0.6,1.25 h -0.5 l -1.02,0.3 -0.52,0.3 -0.51,0.3 -0.83,1.06 -0.31,0.76 -0.32,0.76 -0.32,1.94 v 1.19 1.92 l 0.77,3.31 0.76,1.39 0.76,1.38 2.01,1.39 h 1.24 0.93 l 1.53,-0.76 0.61,-0.77 0.6,-0.77 0.61,-2.63 v -1.87 -2.34 l -1.01,-3.68 -1.01,-1.34 -0.68,-0.92 -1.73,-0.92 z"
     id="path104"
     style="fill:#000000;fill-rule:evenodd;stroke-width:1;stroke-miterlimit:4;stroke-dasharray:none" />
  <path
     d="m 319.94,352.34 v 5.98 h -0.64 l -0.36,-1.41 -0.93,-1.91 -0.57,-0.51 -0.57,-0.5 -1.45,-0.51 h -0.88 -0.67 l -1.07,0.35 -0.42,0.36 -0.41,0.35 -0.41,0.79 v 0.43 0.53 l 0.31,0.92 0.31,0.39 0.29,0.39 1.21,0.83 0.91,0.44 2.79,1.36 1.95,0.95 1.94,2.5 v 1.55 1.2 l -0.91,1.93 -0.9,0.73 -0.9,0.74 -2.03,0.73 h -1.11 -0.81 l -1.83,-0.29 -1.04,-0.29 -0.31,-0.09 -0.52,-0.1 h -0.2 -0.22 l -0.34,0.25 -0.13,0.26 h -0.64 v -6.28 h 0.64 l 0.27,1.34 1.02,2.02 0.75,0.68 0.76,0.68 1.69,0.68 h 0.93 0.66 l 1.08,-0.39 0.41,-0.39 0.42,-0.38 0.41,-0.94 v -0.54 -0.66 l -0.46,-1.11 -0.46,-0.45 -0.46,-0.45 -1.85,-1.14 -1.39,-0.69 -1.39,-0.69 -1.82,-1.24 -0.43,-0.56 -0.43,-0.54 -0.43,-1.38 v -0.84 -1.08 l 0.74,-1.82 0.74,-0.72 0.75,-0.73 1.91,-0.73 h 1.18 0.51 l 1.26,0.21 0.73,0.22 0.49,0.14 0.65,0.15 h 0.16 0.15 l 0.24,-0.07 0.09,-0.07 0.09,-0.06 0.2,-0.3 0.11,-0.22 z"
     id="path106"
     style="fill:#000000;fill-rule:evenodd;stroke-width:1;stroke-miterlimit:4;stroke-dasharray:none" />
  <path
     d="m 17.76,87.94 -3.48,11.58 -0.4,1.3 -0.39,1.63 v 0.34 0.16 l 0.05,0.23 0.05,0.08 0.05,0.07 0.13,0.08 h 0.08 0.12 l 0.28,-0.14 0.15,-0.14 0.15,-0.13 0.76,-1.17 0.61,-1.03 0.58,0.44 -0.67,1.16 -1.36,1.69 -0.7,0.52 -0.46,0.33 -0.89,0.34 h -0.43 -0.33 l -0.52,-0.21 -0.19,-0.21 -0.2,-0.21 -0.19,-0.55 v -0.33 -0.33 l 0.13,-0.86 0.12,-0.53 0.16,-0.66 0.91,-3.04 0.74,-2.38 -1.69,2.67 -2.83,3.66 -1.14,0.99 -1.13,1 -2.1,0.99 H 2.77 2.32 l -0.77,-0.31 -0.31,-0.3 -0.32,-0.31 -0.31,-0.77 v -0.47 -0.72 l 0.5,-2.2 0.51,-1.49 1.99,-5.91 0.37,-1.07 0.36,-1.32 V 90.15 90.04 L 4.24,89.84 4.15,89.76 4.05,89.68 3.84,89.6 H 3.72 3.48 L 3,89.74 2.76,89.88 2.52,90.03 1.44,91.09 0.59,92.01 0,91.59 0.78,90.48 2.43,88.84 3.31,88.31 3.97,87.9 5.2,87.49 h 0.56 0.39 l 0.63,0.27 0.24,0.27 0.25,0.26 0.24,0.69 v 0.43 0.51 l -0.44,1.83 -0.45,1.31 -2.1,6.12 -0.43,1.25 -0.44,1.58 v 0.33 0.18 l 0.13,0.3 0.12,0.11 0.13,0.11 0.33,0.11 H 4.57 4.9 l 0.85,-0.32 0.53,-0.32 0.52,-0.31 1.41,-1.41 0.88,-1.09 0.88,-1.09 1.45,-2.05 0.57,-0.95 0.57,-0.96 1.21,-3.04 0.64,-2.09 0.46,-1.58 z"
     id="path112"
     style="fill:#000000;fill-rule:evenodd;stroke-width:1;stroke-miterlimit:4;stroke-dasharray:none" />
  <path
     d="M 14.67,78.74 16.1,84.8 H 15.7 L 12.46,80.92 6.34,84.8 h -0.5 l 5.95,-6.06 z"
     id="path114"
     style="fill:#000000;fill-rule:evenodd;stroke-width:1;stroke-miterlimit:4;stroke-dasharray:none" />
  <path
     d="m 40.83,86.74 v 5.99 H 40.19 L 39.83,91.32 38.9,89.41 38.33,88.9 37.76,88.39 36.32,87.89 h -0.88 -0.67 l -1.08,0.35 -0.41,0.36 -0.41,0.35 -0.41,0.79 v 0.43 0.53 l 0.3,0.92 0.31,0.38 0.29,0.4 1.21,0.83 0.91,0.44 2.8,1.36 1.94,0.95 1.94,2.5 v 1.55 1.2 l -0.9,1.93 -0.91,0.73 -0.9,0.74 -2.02,0.73 h -1.12 -0.8 l -1.84,-0.29 -1.03,-0.29 -0.32,-0.1 -0.52,-0.09 h -0.2 -0.22 l -0.34,0.25 -0.13,0.25 h -0.63 v -6.27 h 0.63 l 0.27,1.34 1.02,2.02 0.76,0.68 0.75,0.68 1.69,0.67 H 36.34 37 l 1.07,-0.38 0.42,-0.39 0.41,-0.39 0.42,-0.93 v -0.55 -0.65 L 38.86,99.81 38.39,99.36 37.93,98.91 36.08,97.77 34.69,97.08 33.3,96.39 31.49,95.15 31.06,94.59 30.63,94.04 30.2,92.66 v -0.83 -1.09 l 0.74,-1.81 0.74,-0.73 0.74,-0.73 1.92,-0.73 h 1.17 0.52 l 1.25,0.22 0.74,0.22 0.48,0.14 0.65,0.14 h 0.16 0.16 l 0.24,-0.06 0.08,-0.07 0.09,-0.07 0.2,-0.29 0.11,-0.23 z"
     id="path116"
     style="fill:#000000;fill-rule:evenodd;stroke-width:1;stroke-miterlimit:4;stroke-dasharray:none" />
  <path
     d="m 50.83,86.74 v 14.12 0.83 l 0.12,1.09 0.12,0.27 0.12,0.28 0.35,0.4 0.24,0.14 0.23,0.13 0.86,0.14 h 0.62 v 0.69 h -8.54 v -0.69 h 0.65 l 0.86,-0.13 0.22,-0.12 0.22,-0.13 0.35,-0.41 0.13,-0.29 0.13,-0.28 0.13,-1.1 v -0.82 -6.78 -1.42 L 47.55,90.81 47.47,90.39 47.4,90.09 47.19,89.66 47.05,89.54 46.9,89.42 46.51,89.3 h -0.25 -0.27 l -0.65,0.15 -0.38,0.14 -0.27,-0.69 5.3,-2.16 z"
     id="path118"
     style="fill:#000000;fill-rule:evenodd;stroke-width:1;stroke-miterlimit:4;stroke-dasharray:none" />
  <path
     d="m 49.24,77.57 h 0.41 l 0.68,0.28 0.28,0.29 0.28,0.28 0.29,0.68 v 0.4 0.4 l -0.29,0.69 -0.28,0.29 -0.28,0.29 -0.68,0.28 h -0.41 -0.4 L 48.15,81.17 47.87,80.88 47.58,80.59 47.29,79.9 v -0.4 -0.4 l 0.29,-0.68 0.28,-0.28 0.28,-0.29 0.69,-0.28 z"
     id="path120"
     style="fill:#000000;fill-rule:evenodd;stroke-width:1;stroke-miterlimit:4;stroke-dasharray:none" />
  <path
     d="m 60.83,90.47 1.54,-1.86 2.93,-1.87 h 1.4 0.71 l 1.24,0.36 0.51,0.36 0.52,0.36 0.82,1.19 0.31,0.82 0.21,0.58 0.21,1.76 v 1.19 7.5 0.84 l 0.13,1.12 0.13,0.3 0.11,0.24 0.34,0.37 0.24,0.14 0.23,0.13 0.87,0.14 h 0.63 v 0.69 h -8.72 v -0.69 h 0.37 0.61 l 0.86,-0.19 0.25,-0.19 0.24,-0.18 0.34,-0.55 0.1,-0.37 0.04,-0.14 0.04,-0.9 v -0.76 -7.19 -1.19 L 67.73,90.74 67.42,90.19 67.11,89.65 66.07,89.11 H 65.34 64.2 l -2.25,1.25 -1.12,1.24 v 9.26 0.89 l 0.1,1.1 0.11,0.21 0.13,0.28 0.37,0.41 0.23,0.13 0.24,0.13 0.95,0.13 h 0.71 v 0.69 h -8.69 v -0.69 h 0.38 0.67 l 0.91,-0.34 0.23,-0.34 0.23,-0.34 0.24,-1.3 v -0.96 -6.51 -1.58 L 57.57,90.84 57.49,90.49 57.42,90.15 57.2,89.68 57.05,89.55 56.9,89.43 56.51,89.3 H 56.26 55.99 L 55.35,89.45 54.97,89.59 54.69,88.9 60,86.74 h 0.83 z"
     id="path122"
     style="fill:#000000;fill-rule:evenodd;stroke-width:1;stroke-miterlimit:4;stroke-dasharray:none" />
  <path
     d="m 337.98,370.42 6.61,-12.11 0.8,-1.47 1.98,-2.08 1.18,-0.63 1.18,-0.62 2.69,-0.62 h 1.51 2.19 l 3.2,1.26 1.02,1.26 1.01,1.25 v 3.14 l -1.03,1.88 -0.68,1.25 -2.27,2.45 -1.57,1.19 -1.58,1.19 -3.37,1.76 -1.79,0.57 -1.79,0.57 -4.26,0.7 -2.47,0.12 -4.32,7.92 h -3.15 l 4.33,-7.92 -2.13,-0.12 -3.29,-0.7 -1.16,-0.58 -1.16,-0.57 -1.44,-1.75 -0.28,-1.18 -0.28,-1.18 0.4,-2.43 0.68,-1.25 0.58,-1.07 1.69,-1.97 1.11,-0.91 1.1,-0.91 2.24,-1.44 1.14,-0.52 1.13,-0.53 2.16,-0.75 1.02,-0.23 1.02,-0.22 2.34,-0.25 1.33,-0.03 -0.4,0.71 -1.32,0.07 -2.81,0.98 -1.49,0.91 -1.49,0.91 -2.57,2.91 -1.09,1.99 -0.79,1.45 -0.67,2.47 0.11,1.02 0.12,1.02 0.85,1.53 0.75,0.51 0.48,0.32 1.59,0.53 z m 3.17,-0.05 1.51,-0.11 2.6,-0.45 1.08,-0.34 1.49,-0.47 2.63,-1.36 1.13,-0.88 1.13,-0.89 1.8,-2.11 0.67,-1.22 0.95,-1.74 0.25,-2.87 -0.68,-1.14 -0.51,-0.82 -1.72,-0.82 h -1.22 -0.62 l -1.21,0.35 -0.58,0.36 -0.59,0.36 -1.22,1.53 -0.64,1.17 z"
     id="path124"
     style="fill:#000000;fill-rule:evenodd;stroke-width:1;stroke-miterlimit:4;stroke-dasharray:none" />
  <path
     d="m 88.9,104.78 6.61,-12.11 0.8,-1.47 1.98,-2.09 1.18,-0.62 1.18,-0.62 2.69,-0.62 h 1.51 2.19 l 3.2,1.25 1.02,1.26 1.02,1.26 -0.01,3.14 -1.03,1.88 -0.68,1.25 -2.26,2.45 -1.58,1.19 -1.58,1.19 -3.37,1.76 -1.79,0.57 -1.79,0.57 -4.26,0.7 -2.46,0.12 -4.33,7.92 H 84 l 4.32,-7.92 -2.13,-0.12 -3.29,-0.7 -1.16,-0.58 -1.15,-0.57 -1.45,-1.75 -0.28,-1.18 -0.28,-1.18 0.4,-2.43 0.68,-1.26 0.58,-1.06 1.69,-1.97 1.11,-0.91 1.11,-0.91 2.24,-1.44 1.13,-0.52 1.14,-0.53 2.15,-0.75 1.02,-0.23 1.02,-0.22 2.34,-0.26 1.33,-0.02 -0.39,0.71 -1.33,0.07 -2.81,0.98 -1.49,0.91 -1.49,0.91 -2.57,2.9 -1.09,2 -0.79,1.45 -0.67,2.46 0.11,1.02 0.12,1.03 0.86,1.52 0.74,0.51 0.48,0.33 1.59,0.53 z m 3.17,-0.06 1.52,-0.1 2.59,-0.45 1.08,-0.35 1.49,-0.46 2.63,-1.36 1.13,-0.88 1.13,-0.89 1.8,-2.11 0.67,-1.23 0.95,-1.73 0.26,-2.87 -0.69,-1.14 -0.5,-0.82 -1.73,-0.83 h -1.22 -0.62 l -1.2,0.36 -0.59,0.36 -0.58,0.36 -1.23,1.53 -0.63,1.16 z"
     id="path126"
     style="fill:#000000;fill-rule:evenodd;stroke-width:1;stroke-miterlimit:4;stroke-dasharray:none" />
  <path
     d="m 415.93,354.07 -3.49,11.58 -0.39,1.29 -0.39,1.63 v 0.34 0.16 l 0.05,0.24 0.05,0.07 0.04,0.08 0.13,0.07 h 0.08 0.13 l 0.27,-0.13 0.16,-0.14 0.15,-0.14 0.76,-1.17 0.61,-1.03 0.58,0.44 -0.67,1.17 -1.36,1.68 -0.7,0.52 -0.46,0.34 -0.9,0.33 h -0.42 -0.33 l -0.52,-0.21 -0.2,-0.21 -0.19,-0.21 -0.19,-0.54 v -0.34 -0.32 l 0.12,-0.86 0.13,-0.54 0.16,-0.66 0.9,-3.04 0.75,-2.37 -1.69,2.66 -2.83,3.66 -1.14,1 -1.14,0.99 -2.1,0.99 h -0.96 -0.45 l -0.76,-0.3 -0.32,-0.31 -0.31,-0.3 -0.31,-0.78 v -0.46 -0.72 l 0.5,-2.21 0.5,-1.48 2,-5.92 0.36,-1.06 0.37,-1.32 v -0.26 -0.12 l -0.1,-0.19 -0.1,-0.09 -0.09,-0.08 -0.22,-0.08 h -0.11 -0.24 l -0.48,0.14 -0.24,0.15 -0.24,0.14 -1.09,1.07 -0.84,0.91 -0.6,-0.42 0.78,-1.11 1.66,-1.64 0.87,-0.52 0.67,-0.41 1.23,-0.42 h 0.56 0.39 l 0.63,0.27 0.24,0.27 0.25,0.27 0.24,0.69 v 0.42 0.51 l -0.45,1.83 -0.44,1.32 -2.1,6.11 -0.43,1.25 -0.44,1.59 v 0.33 0.18 l 0.13,0.29 0.12,0.11 0.12,0.11 0.34,0.11 h 0.21 0.32 l 0.86,-0.31 0.52,-0.32 0.53,-0.32 1.41,-1.41 0.88,-1.09 0.88,-1.09 1.45,-2.04 0.57,-0.96 0.57,-0.96 1.21,-3.04 0.64,-2.08 0.45,-1.58 z"
     id="path128"
     style="fill:#000000;fill-rule:evenodd;stroke-width:1;stroke-miterlimit:4;stroke-dasharray:none" />
  <path
     d="m 412.83,344.87 1.44,6.06 h -0.4 l -3.24,-3.88 -6.12,3.88 h -0.5 l 5.95,-6.06 z"
     id="path130"
     style="fill:#000000;fill-rule:evenodd;stroke-width:1;stroke-miterlimit:4;stroke-dasharray:none" />
  <path
     d="m 233.2,326.68 -0.02,-2.03 m 0,0 -0.06,-2.04 m 0,0 -0.09,-2.02 m 0,0 -0.14,-2.03 m 0,0 -0.18,-2.03 m 0,0 -0.21,-2.02 m 0,0 -0.25,-2.01 m 0,0 -0.29,-2.01 m 0,0 -0.33,-2.01 m 0,0 -0.37,-2 m 0,0 -0.4,-1.99 m 0,0 -0.44,-1.98 m 0,0 -0.49,-1.97 m 0,0 -0.51,-1.97 m 0,0 -0.56,-1.95 m 0,0 -0.59,-1.95 m 0,0 -0.63,-1.93 m 0,0 -0.67,-1.92 m 0,0 -0.71,-1.9 m 0,0 -0.74,-1.89 m 0,0 -0.77,-1.88 m 0,0 -0.81,-1.86 m 0,0 -0.85,-1.85 m 0,0 -0.88,-1.83 m 0,0 -0.92,-1.81 m 0,0 -0.95,-1.8 m 0,0 -0.99,-1.77 m 0,0 -1.02,-1.76 m 0,0 -1.05,-1.74 m 0,0 -1.09,-1.72 m 0,0 -1.12,-1.69 m 0,0 -1.15,-1.68 m 0,0 -1.18,-1.65 m 0,0 -1.21,-1.63 m 0,0 -1.25,-1.6 m 0,0 -1.27,-1.58 m 0,0 -1.31,-1.56 m 0,0 -1.34,-1.53 m 0,0 -1.36,-1.51 m 0,0 -1.39,-1.48 m 0,0 -1.42,-1.45 m 0,0 -1.45,-1.42 m 0,0 -1.48,-1.4 m 0,0 -1.5,-1.37 m 0,0 -1.53,-1.34 m 0,0 -1.55,-1.31 m 0,0 -1.58,-1.28 m 0,0 -1.6,-1.25 m 0,0 -1.62,-1.22"
     id="path132"
     style="fill:none;stroke:#000000;stroke-width:1;stroke-miterlimit:4;stroke-dasharray:none" />
</svg>
